<mxfile host="Electron" modified="2023-11-27T21:27:24.436Z" agent="Mozilla/5.0 (Windows NT 10.0; Win64; x64) AppleWebKit/537.36 (KHTML, like Gecko) draw.io/22.1.2 Chrome/114.0.5735.289 Electron/25.9.4 Safari/537.36" etag="h672gTHt_lJenGindd4N" version="22.1.2" type="device">
  <diagram id="C5RBs43oDa-KdzZeNtuy" name="Page-1">
    <mxGraphModel dx="3261" dy="4011" grid="1" gridSize="10" guides="1" tooltips="1" connect="1" arrows="1" fold="1" page="1" pageScale="1" pageWidth="827" pageHeight="1169" math="0" shadow="0">
      <root>
        <mxCell id="WIyWlLk6GJQsqaUBKTNV-0" />
        <mxCell id="WIyWlLk6GJQsqaUBKTNV-1" parent="WIyWlLk6GJQsqaUBKTNV-0" />
        <mxCell id="t_EYv7iy1hWX2MRVvRUI-7" value="&lt;div style=&quot;text-align: left;&quot;&gt;GET?view=TaskEdit&lt;/div&gt;&lt;div style=&quot;text-align: left;&quot;&gt;&amp;amp;projectId=...&lt;/div&gt;&lt;div style=&quot;text-align: left;&quot;&gt;&amp;amp;taskNumber=...&lt;/div&gt;" style="html=1;verticalAlign=bottom;endArrow=block;rounded=0;endSize=10;exitX=0.5;exitY=0.058;exitDx=0;exitDy=0;exitPerimeter=0;entryX=0;entryY=0.034;entryDx=0;entryDy=0;entryPerimeter=0;" parent="WIyWlLk6GJQsqaUBKTNV-1" source="t_EYv7iy1hWX2MRVvRUI-4" edge="1">
          <mxGeometry x="-0.0777" y="-50" width="80" relative="1" as="geometry">
            <mxPoint x="-1590" y="-3279.84" as="sourcePoint" />
            <mxPoint x="-1395" y="-3280.1400000000003" as="targetPoint" />
            <mxPoint as="offset" />
          </mxGeometry>
        </mxCell>
        <mxCell id="E7oqF2Y1Bg3r5n-uWhPA-97" value="taskEdit&#xa;:TaskEdit" style="swimlane;fontStyle=1;align=center;verticalAlign=top;childLayout=stackLayout;horizontal=1;startSize=60;horizontalStack=0;resizeParent=1;resizeLast=0;collapsible=1;marginBottom=0;rounded=0;shadow=0;strokeWidth=1;fillColor=#cdeb8b;strokeColor=#36393d;fontSize=13;" parent="WIyWlLk6GJQsqaUBKTNV-1" vertex="1">
          <mxGeometry x="-1450" y="-3380" width="120" height="60" as="geometry">
            <mxRectangle x="230" y="140" width="160" height="26" as="alternateBounds" />
          </mxGeometry>
        </mxCell>
        <mxCell id="E7oqF2Y1Bg3r5n-uWhPA-108" value="taskDAO&#xa;:TaskDAO" style="swimlane;fontStyle=1;align=center;verticalAlign=top;childLayout=stackLayout;horizontal=1;startSize=60;horizontalStack=0;resizeParent=1;resizeLast=0;collapsible=1;marginBottom=0;rounded=0;shadow=0;strokeWidth=1;fillColor=#ffcccc;strokeColor=#36393d;fontSize=13;" parent="WIyWlLk6GJQsqaUBKTNV-1" vertex="1">
          <mxGeometry x="-1235" y="-3290" width="120" height="60" as="geometry">
            <mxRectangle x="230" y="140" width="160" height="26" as="alternateBounds" />
          </mxGeometry>
        </mxCell>
        <mxCell id="E7oqF2Y1Bg3r5n-uWhPA-119" value="task&#xa;:Task" style="swimlane;fontStyle=1;align=center;verticalAlign=top;childLayout=stackLayout;horizontal=1;startSize=60;horizontalStack=0;resizeParent=1;resizeLast=0;collapsible=1;marginBottom=0;rounded=0;shadow=0;strokeWidth=1;fillColor=#ffcc99;strokeColor=#36393d;fontSize=13;" parent="WIyWlLk6GJQsqaUBKTNV-1" vertex="1">
          <mxGeometry x="-1000" y="-3150" width="120" height="60" as="geometry">
            <mxRectangle x="230" y="140" width="160" height="26" as="alternateBounds" />
          </mxGeometry>
        </mxCell>
        <mxCell id="t_EYv7iy1hWX2MRVvRUI-3" value="User (Browser)" style="shape=umlActor;verticalLabelPosition=bottom;verticalAlign=top;html=1;fillColor=#d80073;fontColor=#ffffff;strokeColor=#A50040;" parent="WIyWlLk6GJQsqaUBKTNV-1" vertex="1">
          <mxGeometry x="-1750" y="-3410" width="30" height="60" as="geometry" />
        </mxCell>
        <mxCell id="t_EYv7iy1hWX2MRVvRUI-4" value="" style="html=1;points=[];perimeter=orthogonalPerimeter;fillColor=#eeeeee;strokeColor=#36393d;" parent="WIyWlLk6GJQsqaUBKTNV-1" vertex="1">
          <mxGeometry x="-1605" y="-3300" width="10" height="340" as="geometry" />
        </mxCell>
        <mxCell id="t_EYv7iy1hWX2MRVvRUI-6" value="" style="html=1;points=[];perimeter=orthogonalPerimeter;fillColor=#eeeeee;strokeColor=#36393d;" parent="WIyWlLk6GJQsqaUBKTNV-1" vertex="1">
          <mxGeometry x="-1395" y="-3290" width="10" height="310" as="geometry" />
        </mxCell>
        <mxCell id="t_EYv7iy1hWX2MRVvRUI-8" value="FORM" style="html=1;verticalAlign=bottom;endArrow=block;rounded=0;endSize=10;dashed=1;entryX=1.084;entryY=0.908;entryDx=0;entryDy=0;entryPerimeter=0;" parent="WIyWlLk6GJQsqaUBKTNV-1" target="t_EYv7iy1hWX2MRVvRUI-4" edge="1">
          <mxGeometry width="80" relative="1" as="geometry">
            <mxPoint x="-1400" y="-2990" as="sourcePoint" />
            <mxPoint x="-1590" y="-2990" as="targetPoint" />
          </mxGeometry>
        </mxCell>
        <mxCell id="t_EYv7iy1hWX2MRVvRUI-9" value="create ()" style="html=1;verticalAlign=bottom;endArrow=block;rounded=0;endSize=10;exitX=1;exitY=0.103;exitDx=0;exitDy=0;exitPerimeter=0;" parent="WIyWlLk6GJQsqaUBKTNV-1" source="t_EYv7iy1hWX2MRVvRUI-6" target="E7oqF2Y1Bg3r5n-uWhPA-108" edge="1">
          <mxGeometry width="80" relative="1" as="geometry">
            <mxPoint x="-1390" y="-3260" as="sourcePoint" />
            <mxPoint x="-1255" y="-3260.5" as="targetPoint" />
          </mxGeometry>
        </mxCell>
        <mxCell id="t_EYv7iy1hWX2MRVvRUI-10" value="" style="html=1;points=[];perimeter=orthogonalPerimeter;fillColor=#eeeeee;strokeColor=#36393d;" parent="WIyWlLk6GJQsqaUBKTNV-1" vertex="1">
          <mxGeometry x="-1180" y="-3200" width="10" height="110" as="geometry" />
        </mxCell>
        <mxCell id="t_EYv7iy1hWX2MRVvRUI-11" value="get (projectID, taskNumber)" style="html=1;verticalAlign=bottom;endArrow=block;rounded=0;endSize=10;entryX=-0.1;entryY=0.113;entryDx=0;entryDy=0;entryPerimeter=0;" parent="WIyWlLk6GJQsqaUBKTNV-1" source="t_EYv7iy1hWX2MRVvRUI-6" target="t_EYv7iy1hWX2MRVvRUI-10" edge="1">
          <mxGeometry width="80" relative="1" as="geometry">
            <mxPoint x="-1395" y="-3190" as="sourcePoint" />
            <mxPoint x="-1195" y="-3189.5" as="targetPoint" />
          </mxGeometry>
        </mxCell>
        <mxCell id="t_EYv7iy1hWX2MRVvRUI-12" value="task" style="html=1;verticalAlign=bottom;endArrow=block;rounded=0;endSize=10;dashed=1;exitX=-0.258;exitY=0.892;exitDx=0;exitDy=0;exitPerimeter=0;" parent="WIyWlLk6GJQsqaUBKTNV-1" source="t_EYv7iy1hWX2MRVvRUI-10" target="t_EYv7iy1hWX2MRVvRUI-6" edge="1">
          <mxGeometry width="80" relative="1" as="geometry">
            <mxPoint x="-1200" y="-3100" as="sourcePoint" />
            <mxPoint x="-1395" y="-3130" as="targetPoint" />
            <mxPoint as="offset" />
          </mxGeometry>
        </mxCell>
        <mxCell id="t_EYv7iy1hWX2MRVvRUI-13" value="create ()" style="html=1;verticalAlign=bottom;endArrow=block;rounded=0;endSize=10;entryX=0;entryY=0.5;entryDx=0;entryDy=0;" parent="WIyWlLk6GJQsqaUBKTNV-1" source="t_EYv7iy1hWX2MRVvRUI-10" target="E7oqF2Y1Bg3r5n-uWhPA-119" edge="1">
          <mxGeometry width="80" relative="1" as="geometry">
            <mxPoint x="-1155" y="-3160" as="sourcePoint" />
            <mxPoint x="-1015" y="-3160" as="targetPoint" />
          </mxGeometry>
        </mxCell>
        <mxCell id="t_EYv7iy1hWX2MRVvRUI-16" value="&lt;font style=&quot;font-size: 13px;&quot;&gt;Browser&lt;/font&gt;" style="text;html=1;strokeColor=none;fillColor=none;align=center;verticalAlign=middle;whiteSpace=wrap;rounded=0;fontStyle=1" parent="WIyWlLk6GJQsqaUBKTNV-1" vertex="1">
          <mxGeometry x="-1765" y="-3355" width="60" height="30" as="geometry" />
        </mxCell>
        <mxCell id="t_EYv7iy1hWX2MRVvRUI-20" value="" style="endArrow=none;dashed=1;html=1;dashPattern=1 3;strokeWidth=2;rounded=0;entryX=0.5;entryY=1;entryDx=0;entryDy=0;" parent="WIyWlLk6GJQsqaUBKTNV-1" source="t_EYv7iy1hWX2MRVvRUI-10" target="E7oqF2Y1Bg3r5n-uWhPA-108" edge="1">
          <mxGeometry width="50" height="50" relative="1" as="geometry">
            <mxPoint x="-1045" y="-2980" as="sourcePoint" />
            <mxPoint x="-1045" y="-3020" as="targetPoint" />
          </mxGeometry>
        </mxCell>
        <mxCell id="t_EYv7iy1hWX2MRVvRUI-22" value="" style="endArrow=none;dashed=1;html=1;dashPattern=1 3;strokeWidth=2;rounded=0;entryX=0.5;entryY=1;entryDx=0;entryDy=0;" parent="WIyWlLk6GJQsqaUBKTNV-1" source="t_EYv7iy1hWX2MRVvRUI-6" target="E7oqF2Y1Bg3r5n-uWhPA-97" edge="1">
          <mxGeometry width="50" height="50" relative="1" as="geometry">
            <mxPoint x="-1020" y="-2980" as="sourcePoint" />
            <mxPoint x="-1020" y="-3020" as="targetPoint" />
          </mxGeometry>
        </mxCell>
        <mxCell id="t_EYv7iy1hWX2MRVvRUI-28" value="" style="endArrow=none;dashed=1;html=1;dashPattern=1 3;strokeWidth=2;rounded=0;exitX=0.453;exitY=0.004;exitDx=0;exitDy=0;exitPerimeter=0;" parent="WIyWlLk6GJQsqaUBKTNV-1" source="t_EYv7iy1hWX2MRVvRUI-29" target="E7oqF2Y1Bg3r5n-uWhPA-119" edge="1">
          <mxGeometry width="50" height="50" relative="1" as="geometry">
            <mxPoint x="-940" y="-3090" as="sourcePoint" />
            <mxPoint x="-940" y="-3090" as="targetPoint" />
          </mxGeometry>
        </mxCell>
        <mxCell id="t_EYv7iy1hWX2MRVvRUI-29" value="" style="html=1;points=[];perimeter=orthogonalPerimeter;fillColor=#eeeeee;strokeColor=#36393d;" parent="WIyWlLk6GJQsqaUBKTNV-1" vertex="1">
          <mxGeometry x="-945" y="-3050" width="10" height="50" as="geometry" />
        </mxCell>
        <mxCell id="t_EYv7iy1hWX2MRVvRUI-31" value="getValues()" style="html=1;verticalAlign=bottom;endArrow=block;rounded=0;endSize=10;" parent="WIyWlLk6GJQsqaUBKTNV-1" source="t_EYv7iy1hWX2MRVvRUI-6" edge="1">
          <mxGeometry width="80" relative="1" as="geometry">
            <mxPoint x="-1395" y="-3070" as="sourcePoint" />
            <mxPoint x="-945" y="-3040" as="targetPoint" />
          </mxGeometry>
        </mxCell>
        <mxCell id="t_EYv7iy1hWX2MRVvRUI-32" value="values" style="html=1;verticalAlign=bottom;endArrow=block;rounded=0;endSize=10;dashed=1;entryX=1;entryY=0.897;entryDx=0;entryDy=0;entryPerimeter=0;" parent="WIyWlLk6GJQsqaUBKTNV-1" source="t_EYv7iy1hWX2MRVvRUI-29" target="t_EYv7iy1hWX2MRVvRUI-6" edge="1">
          <mxGeometry width="80" relative="1" as="geometry">
            <mxPoint x="-980" y="-3020" as="sourcePoint" />
            <mxPoint x="-1330" y="-3020" as="targetPoint" />
            <mxPoint as="offset" />
          </mxGeometry>
        </mxCell>
        <mxCell id="t_EYv7iy1hWX2MRVvRUI-33" value="taskController&#xa;:TaskController" style="swimlane;fontStyle=1;align=center;verticalAlign=top;childLayout=stackLayout;horizontal=1;startSize=60;horizontalStack=0;resizeParent=1;resizeLast=0;collapsible=1;marginBottom=0;rounded=0;shadow=0;strokeWidth=1;fillColor=#CCE5FF;strokeColor=#36393d;fontSize=13;" parent="WIyWlLk6GJQsqaUBKTNV-1" vertex="1">
          <mxGeometry x="-1450" y="-2930" width="120" height="60" as="geometry">
            <mxRectangle x="230" y="140" width="160" height="26" as="alternateBounds" />
          </mxGeometry>
        </mxCell>
        <mxCell id="t_EYv7iy1hWX2MRVvRUI-34" value="" style="html=1;points=[];perimeter=orthogonalPerimeter;fillColor=#eeeeee;strokeColor=#36393d;" parent="WIyWlLk6GJQsqaUBKTNV-1" vertex="1">
          <mxGeometry x="-1605" y="-2840" width="10" height="330" as="geometry" />
        </mxCell>
        <mxCell id="t_EYv7iy1hWX2MRVvRUI-35" value="POST" style="html=1;verticalAlign=bottom;endArrow=block;rounded=0;endSize=10;entryX=-0.3;entryY=0.022;entryDx=0;entryDy=0;entryPerimeter=0;exitX=1;exitY=0.024;exitDx=0;exitDy=0;exitPerimeter=0;" parent="WIyWlLk6GJQsqaUBKTNV-1" source="t_EYv7iy1hWX2MRVvRUI-34" target="t_EYv7iy1hWX2MRVvRUI-37" edge="1">
          <mxGeometry width="80" relative="1" as="geometry">
            <mxPoint x="-1590" y="-2833" as="sourcePoint" />
            <mxPoint x="-1435" y="-2830" as="targetPoint" />
          </mxGeometry>
        </mxCell>
        <mxCell id="t_EYv7iy1hWX2MRVvRUI-37" value="" style="html=1;points=[];perimeter=orthogonalPerimeter;fillColor=#eeeeee;strokeColor=#36393d;" parent="WIyWlLk6GJQsqaUBKTNV-1" vertex="1">
          <mxGeometry x="-1395" y="-2840" width="10" height="320" as="geometry" />
        </mxCell>
        <mxCell id="t_EYv7iy1hWX2MRVvRUI-38" value="redirect to TaskList" style="html=1;verticalAlign=bottom;endArrow=block;rounded=0;endSize=10;dashed=1;entryX=1.2;entryY=0.9;entryDx=0;entryDy=0;entryPerimeter=0;" parent="WIyWlLk6GJQsqaUBKTNV-1" source="t_EYv7iy1hWX2MRVvRUI-37" target="t_EYv7iy1hWX2MRVvRUI-34" edge="1">
          <mxGeometry width="80" relative="1" as="geometry">
            <mxPoint x="-1430" y="-2540" as="sourcePoint" />
            <mxPoint x="-1560" y="-2550" as="targetPoint" />
          </mxGeometry>
        </mxCell>
        <mxCell id="t_EYv7iy1hWX2MRVvRUI-39" value="" style="endArrow=none;dashed=1;html=1;dashPattern=1 3;strokeWidth=2;rounded=0;" parent="WIyWlLk6GJQsqaUBKTNV-1" target="t_EYv7iy1hWX2MRVvRUI-4" edge="1">
          <mxGeometry width="50" height="50" relative="1" as="geometry">
            <mxPoint x="-1600" y="-2840" as="sourcePoint" />
            <mxPoint x="-1405" y="-3310" as="targetPoint" />
          </mxGeometry>
        </mxCell>
        <mxCell id="XZZybHyFyw4RxyHggj3s-32" value="" style="edgeStyle=orthogonalEdgeStyle;rounded=0;orthogonalLoop=1;jettySize=auto;html=1;strokeColor=#FF8000;fontColor=#FF8000;opacity=0;" parent="WIyWlLk6GJQsqaUBKTNV-1" source="t_EYv7iy1hWX2MRVvRUI-40" target="t_EYv7iy1hWX2MRVvRUI-42" edge="1">
          <mxGeometry relative="1" as="geometry" />
        </mxCell>
        <mxCell id="t_EYv7iy1hWX2MRVvRUI-40" value="task&#xa;:Task" style="swimlane;fontStyle=1;align=center;verticalAlign=top;childLayout=stackLayout;horizontal=1;startSize=60;horizontalStack=0;resizeParent=1;resizeLast=0;collapsible=1;marginBottom=0;rounded=0;shadow=0;strokeWidth=1;fillColor=#ffcc99;strokeColor=#36393d;fontSize=13;" parent="WIyWlLk6GJQsqaUBKTNV-1" vertex="1">
          <mxGeometry x="-1000" y="-2780" width="120" height="60" as="geometry">
            <mxRectangle x="230" y="140" width="160" height="26" as="alternateBounds" />
          </mxGeometry>
        </mxCell>
        <mxCell id="t_EYv7iy1hWX2MRVvRUI-41" value="create (form)" style="html=1;verticalAlign=bottom;endArrow=block;rounded=0;endSize=10;exitX=0.9;exitY=0.278;exitDx=0;exitDy=0;exitPerimeter=0;entryX=0;entryY=0.5;entryDx=0;entryDy=0;" parent="WIyWlLk6GJQsqaUBKTNV-1" source="t_EYv7iy1hWX2MRVvRUI-37" target="t_EYv7iy1hWX2MRVvRUI-40" edge="1">
          <mxGeometry x="-0.1509" y="-1" width="80" relative="1" as="geometry">
            <mxPoint x="-1390" y="-2750" as="sourcePoint" />
            <mxPoint x="-1010" y="-2750" as="targetPoint" />
            <mxPoint as="offset" />
          </mxGeometry>
        </mxCell>
        <mxCell id="t_EYv7iy1hWX2MRVvRUI-42" value="" style="html=1;points=[];perimeter=orthogonalPerimeter;fillColor=#eeeeee;strokeColor=#36393d;" parent="WIyWlLk6GJQsqaUBKTNV-1" vertex="1">
          <mxGeometry x="-945" y="-2670" width="10" height="50" as="geometry" />
        </mxCell>
        <mxCell id="t_EYv7iy1hWX2MRVvRUI-43" value="" style="endArrow=none;dashed=1;html=1;dashPattern=1 3;strokeWidth=2;rounded=0;" parent="WIyWlLk6GJQsqaUBKTNV-1" source="t_EYv7iy1hWX2MRVvRUI-42" edge="1">
          <mxGeometry width="50" height="50" relative="1" as="geometry">
            <mxPoint x="-941" y="-2690" as="sourcePoint" />
            <mxPoint x="-941" y="-2720" as="targetPoint" />
          </mxGeometry>
        </mxCell>
        <mxCell id="t_EYv7iy1hWX2MRVvRUI-44" value="taskDAO&#xa;:TaskDAO" style="swimlane;fontStyle=1;align=center;verticalAlign=top;childLayout=stackLayout;horizontal=1;startSize=60;horizontalStack=0;resizeParent=1;resizeLast=0;collapsible=1;marginBottom=0;rounded=0;shadow=0;strokeWidth=1;fillColor=#ffcccc;strokeColor=#36393d;fontSize=13;" parent="WIyWlLk6GJQsqaUBKTNV-1" vertex="1">
          <mxGeometry x="-1235" y="-2850" width="120" height="60" as="geometry">
            <mxRectangle x="230" y="140" width="160" height="26" as="alternateBounds" />
          </mxGeometry>
        </mxCell>
        <mxCell id="t_EYv7iy1hWX2MRVvRUI-45" value="create ()" style="html=1;verticalAlign=bottom;endArrow=block;rounded=0;endSize=10;exitX=1;exitY=0.059;exitDx=0;exitDy=0;exitPerimeter=0;entryX=0;entryY=0.5;entryDx=0;entryDy=0;" parent="WIyWlLk6GJQsqaUBKTNV-1" source="t_EYv7iy1hWX2MRVvRUI-37" target="t_EYv7iy1hWX2MRVvRUI-44" edge="1">
          <mxGeometry width="80" relative="1" as="geometry">
            <mxPoint x="-1395" y="-2820.5" as="sourcePoint" />
            <mxPoint x="-1255" y="-2820.5" as="targetPoint" />
          </mxGeometry>
        </mxCell>
        <mxCell id="t_EYv7iy1hWX2MRVvRUI-46" value="" style="html=1;points=[];perimeter=orthogonalPerimeter;fillColor=#eeeeee;strokeColor=#36393d;" parent="WIyWlLk6GJQsqaUBKTNV-1" vertex="1">
          <mxGeometry x="-1180" y="-2680" width="10" height="140" as="geometry" />
        </mxCell>
        <mxCell id="t_EYv7iy1hWX2MRVvRUI-47" value="" style="endArrow=none;dashed=1;html=1;dashPattern=1 3;strokeWidth=2;rounded=0;" parent="WIyWlLk6GJQsqaUBKTNV-1" source="t_EYv7iy1hWX2MRVvRUI-46" target="t_EYv7iy1hWX2MRVvRUI-44" edge="1">
          <mxGeometry width="50" height="50" relative="1" as="geometry">
            <mxPoint x="-1045" y="-2460" as="sourcePoint" />
            <mxPoint x="-1175" y="-2710" as="targetPoint" />
          </mxGeometry>
        </mxCell>
        <mxCell id="t_EYv7iy1hWX2MRVvRUI-48" value="update (task)" style="html=1;verticalAlign=bottom;endArrow=block;rounded=0;endSize=10;entryX=-0.3;entryY=0.064;entryDx=0;entryDy=0;entryPerimeter=0;exitX=0.9;exitY=0.531;exitDx=0;exitDy=0;exitPerimeter=0;" parent="WIyWlLk6GJQsqaUBKTNV-1" source="t_EYv7iy1hWX2MRVvRUI-37" target="t_EYv7iy1hWX2MRVvRUI-46" edge="1">
          <mxGeometry width="80" relative="1" as="geometry">
            <mxPoint x="-1395" y="-2670" as="sourcePoint" />
            <mxPoint x="-1195" y="-2670" as="targetPoint" />
          </mxGeometry>
        </mxCell>
        <mxCell id="t_EYv7iy1hWX2MRVvRUI-53" value="getValues()" style="html=1;verticalAlign=bottom;endArrow=block;rounded=0;endSize=10;exitX=1.1;exitY=0.129;exitDx=0;exitDy=0;exitPerimeter=0;" parent="WIyWlLk6GJQsqaUBKTNV-1" source="t_EYv7iy1hWX2MRVvRUI-46" target="t_EYv7iy1hWX2MRVvRUI-42" edge="1">
          <mxGeometry width="80" relative="1" as="geometry">
            <mxPoint x="-1155" y="-2660" as="sourcePoint" />
            <mxPoint x="-955" y="-2660" as="targetPoint" />
          </mxGeometry>
        </mxCell>
        <mxCell id="t_EYv7iy1hWX2MRVvRUI-54" value="values" style="html=1;verticalAlign=bottom;endArrow=block;rounded=0;endSize=10;dashed=1;entryX=1.321;entryY=0.363;entryDx=0;entryDy=0;entryPerimeter=0;" parent="WIyWlLk6GJQsqaUBKTNV-1" source="t_EYv7iy1hWX2MRVvRUI-42" target="t_EYv7iy1hWX2MRVvRUI-46" edge="1">
          <mxGeometry width="80" relative="1" as="geometry">
            <mxPoint x="-955" y="-2620" as="sourcePoint" />
            <mxPoint x="-1155" y="-2620" as="targetPoint" />
            <mxPoint as="offset" />
          </mxGeometry>
        </mxCell>
        <mxCell id="t_EYv7iy1hWX2MRVvRUI-55" value="UPDATE (sql)" style="html=1;verticalAlign=bottom;endArrow=block;rounded=0;endSize=10;" parent="WIyWlLk6GJQsqaUBKTNV-1" target="t_EYv7iy1hWX2MRVvRUI-46" edge="1">
          <mxGeometry x="0.4783" y="-10" width="80" relative="1" as="geometry">
            <mxPoint x="-1170" y="-2590" as="sourcePoint" />
            <mxPoint x="-1155" y="-2560" as="targetPoint" />
            <Array as="points">
              <mxPoint x="-1055" y="-2590" />
              <mxPoint x="-1055" y="-2560" />
            </Array>
            <mxPoint as="offset" />
          </mxGeometry>
        </mxCell>
        <mxCell id="t_EYv7iy1hWX2MRVvRUI-56" value="" style="html=1;verticalAlign=bottom;endArrow=block;rounded=0;endSize=10;dashed=1;exitX=0.2;exitY=0.921;exitDx=0;exitDy=0;exitPerimeter=0;" parent="WIyWlLk6GJQsqaUBKTNV-1" source="t_EYv7iy1hWX2MRVvRUI-46" target="t_EYv7iy1hWX2MRVvRUI-37" edge="1">
          <mxGeometry y="-10" width="80" relative="1" as="geometry">
            <mxPoint x="-1195" y="-2550" as="sourcePoint" />
            <mxPoint x="-1395" y="-2550" as="targetPoint" />
            <mxPoint as="offset" />
          </mxGeometry>
        </mxCell>
        <mxCell id="y4KG9S0R6NUWgRdyfyqP-0" value="Project Manager 1&amp;nbsp; -&amp;nbsp; Sequence Diagram&amp;nbsp; -&amp;nbsp; Use Case 6. Change task status" style="text;html=1;align=left;verticalAlign=middle;resizable=0;points=[];autosize=1;strokeColor=none;fillColor=none;fontSize=21;fontStyle=1" parent="WIyWlLk6GJQsqaUBKTNV-1" vertex="1">
          <mxGeometry x="-1630" y="-3470" width="770" height="40" as="geometry" />
        </mxCell>
        <mxCell id="y4KG9S0R6NUWgRdyfyqP-1" value="Frans Spijkerman&amp;nbsp; -&amp;nbsp; Avans Hogeschool&amp;nbsp; -&amp;nbsp; 2022-12-16a" style="text;html=1;align=left;verticalAlign=middle;resizable=0;points=[];autosize=1;fontSize=12;fontStyle=2;labelBackgroundColor=none;fontColor=#696969;" parent="WIyWlLk6GJQsqaUBKTNV-1" vertex="1">
          <mxGeometry x="-1615" y="-2480" width="320" height="30" as="geometry" />
        </mxCell>
        <mxCell id="XZZybHyFyw4RxyHggj3s-0" value="Text" style="text;html=1;strokeColor=none;fillColor=none;align=center;verticalAlign=middle;whiteSpace=wrap;rounded=0;" parent="WIyWlLk6GJQsqaUBKTNV-1" vertex="1">
          <mxGeometry x="-1070" y="-2610" width="60" height="30" as="geometry" />
        </mxCell>
        <mxCell id="XZZybHyFyw4RxyHggj3s-8" value="" style="edgeStyle=orthogonalEdgeStyle;rounded=0;orthogonalLoop=1;jettySize=auto;html=1;fontColor=#000000;opacity=0;" parent="WIyWlLk6GJQsqaUBKTNV-1" source="XZZybHyFyw4RxyHggj3s-1" target="t_EYv7iy1hWX2MRVvRUI-42" edge="1">
          <mxGeometry relative="1" as="geometry" />
        </mxCell>
        <mxCell id="XZZybHyFyw4RxyHggj3s-1" value="short for:&amp;nbsp;call all&lt;br&gt;necessary get methods" style="text;html=1;align=left;verticalAlign=middle;resizable=0;points=[];autosize=1;strokeColor=#FF8000;fillColor=none;fontStyle=2;fontColor=#FF8000;spacingTop=1;spacingLeft=6;spacingRight=3;rounded=1;arcSize=41;" parent="WIyWlLk6GJQsqaUBKTNV-1" vertex="1">
          <mxGeometry x="-1020" y="-2550" width="150" height="40" as="geometry" />
        </mxCell>
        <mxCell id="XZZybHyFyw4RxyHggj3s-4" value="" style="endArrow=none;dashed=1;html=1;dashPattern=1 3;strokeWidth=2;rounded=0;opacity=0;" parent="WIyWlLk6GJQsqaUBKTNV-1" edge="1">
          <mxGeometry width="50" height="50" relative="1" as="geometry">
            <mxPoint x="-1070" y="-2570" as="sourcePoint" />
            <mxPoint x="-1020" y="-2620" as="targetPoint" />
          </mxGeometry>
        </mxCell>
        <mxCell id="XZZybHyFyw4RxyHggj3s-11" value="" style="endArrow=none;dashed=1;html=1;dashPattern=1 3;strokeWidth=2;rounded=0;fontColor=#FF8000;entryX=0.348;entryY=0.033;entryDx=0;entryDy=0;entryPerimeter=0;strokeColor=#FF8000;" parent="WIyWlLk6GJQsqaUBKTNV-1" target="XZZybHyFyw4RxyHggj3s-1" edge="1">
          <mxGeometry width="50" height="50" relative="1" as="geometry">
            <mxPoint x="-1050" y="-2660" as="sourcePoint" />
            <mxPoint x="-1165" y="-2780" as="targetPoint" />
          </mxGeometry>
        </mxCell>
        <mxCell id="XZZybHyFyw4RxyHggj3s-12" value="typical web app: DAO is&lt;br&gt;created on every request" style="text;html=1;align=left;verticalAlign=middle;resizable=0;points=[];autosize=1;strokeColor=#FF8000;fillColor=none;fontStyle=2;fontColor=#FF8000;spacingTop=1;spacingLeft=6;spacingRight=3;rounded=1;arcSize=40;" parent="WIyWlLk6GJQsqaUBKTNV-1" vertex="1">
          <mxGeometry x="-1275" y="-2970" width="160" height="40" as="geometry" />
        </mxCell>
        <mxCell id="XZZybHyFyw4RxyHggj3s-13" value="" style="endArrow=none;dashed=1;html=1;dashPattern=1 3;strokeWidth=2;rounded=0;fontColor=#FF8000;strokeColor=#FF8000;exitX=0.395;exitY=1.086;exitDx=0;exitDy=0;exitPerimeter=0;" parent="WIyWlLk6GJQsqaUBKTNV-1" source="XZZybHyFyw4RxyHggj3s-12" edge="1">
          <mxGeometry width="50" height="50" relative="1" as="geometry">
            <mxPoint x="-1078.06" y="-2980" as="sourcePoint" />
            <mxPoint x="-1300" y="-2820" as="targetPoint" />
          </mxGeometry>
        </mxCell>
        <mxCell id="XZZybHyFyw4RxyHggj3s-18" value="" style="endArrow=none;dashed=1;html=1;dashPattern=1 3;strokeWidth=2;rounded=0;entryX=0.5;entryY=1;entryDx=0;entryDy=0;" parent="WIyWlLk6GJQsqaUBKTNV-1" edge="1">
          <mxGeometry width="50" height="50" relative="1" as="geometry">
            <mxPoint x="-1390.26" y="-2840" as="sourcePoint" />
            <mxPoint x="-1390.26" y="-2870" as="targetPoint" />
            <Array as="points">
              <mxPoint x="-1390.26" y="-2840" />
            </Array>
          </mxGeometry>
        </mxCell>
        <mxCell id="XZZybHyFyw4RxyHggj3s-19" value="" style="endArrow=none;dashed=1;html=1;dashPattern=1 3;strokeWidth=2;rounded=0;fontColor=#FF8000;strokeColor=#FF8000;" parent="WIyWlLk6GJQsqaUBKTNV-1" target="XZZybHyFyw4RxyHggj3s-12" edge="1">
          <mxGeometry width="50" height="50" relative="1" as="geometry">
            <mxPoint x="-1300" y="-3260" as="sourcePoint" />
            <mxPoint x="-1124.2" y="-2842.34" as="targetPoint" />
          </mxGeometry>
        </mxCell>
        <mxCell id="XZZybHyFyw4RxyHggj3s-20" value="DAO creates Task object&lt;br&gt;from database record" style="text;html=1;align=left;verticalAlign=middle;resizable=0;points=[];autosize=1;strokeColor=#FF8000;fillColor=none;fontStyle=2;fontColor=#FF8000;spacingTop=1;spacingLeft=6;spacingRight=3;rounded=1;arcSize=50;" parent="WIyWlLk6GJQsqaUBKTNV-1" vertex="1">
          <mxGeometry x="-1040" y="-3290" width="160" height="40" as="geometry" />
        </mxCell>
        <mxCell id="XZZybHyFyw4RxyHggj3s-21" value="Controller creates Task object&lt;br&gt;from posted form data" style="text;html=1;align=left;verticalAlign=middle;resizable=0;points=[];autosize=1;strokeColor=#FF8000;fillColor=none;fontStyle=2;fontColor=#FF8000;spacingTop=1;spacingLeft=6;spacingRight=3;rounded=1;arcSize=46;" parent="WIyWlLk6GJQsqaUBKTNV-1" vertex="1">
          <mxGeometry x="-1040" y="-2890" width="190" height="40" as="geometry" />
        </mxCell>
        <mxCell id="XZZybHyFyw4RxyHggj3s-22" value="" style="endArrow=none;dashed=1;html=1;dashPattern=1 3;strokeWidth=2;rounded=0;fontColor=#FF8000;strokeColor=#FF8000;entryX=0.5;entryY=1;entryDx=0;entryDy=0;entryPerimeter=0;" parent="WIyWlLk6GJQsqaUBKTNV-1" target="XZZybHyFyw4RxyHggj3s-20" edge="1">
          <mxGeometry width="50" height="50" relative="1" as="geometry">
            <mxPoint x="-1050" y="-3120" as="sourcePoint" />
            <mxPoint x="-1173.6206896551723" y="-2980" as="targetPoint" />
          </mxGeometry>
        </mxCell>
        <mxCell id="XZZybHyFyw4RxyHggj3s-23" value="" style="endArrow=none;dashed=1;html=1;dashPattern=1 3;strokeWidth=2;rounded=0;fontColor=#FF8000;strokeColor=#FF8000;" parent="WIyWlLk6GJQsqaUBKTNV-1" target="XZZybHyFyw4RxyHggj3s-21" edge="1">
          <mxGeometry width="50" height="50" relative="1" as="geometry">
            <mxPoint x="-1100" y="-2750" as="sourcePoint" />
            <mxPoint x="-950" y="-3270" as="targetPoint" />
          </mxGeometry>
        </mxCell>
        <mxCell id="XZZybHyFyw4RxyHggj3s-24" value="DAO updates existing database&lt;br&gt;record&amp;nbsp;using Task object" style="text;html=1;align=left;verticalAlign=middle;resizable=0;points=[];autosize=1;strokeColor=#FF8000;fillColor=none;fontStyle=2;fontColor=#FF8000;spacingTop=1;spacingLeft=6;spacingRight=3;rounded=1;arcSize=39;" parent="WIyWlLk6GJQsqaUBKTNV-1" vertex="1">
          <mxGeometry x="-1255" y="-2510" width="200" height="40" as="geometry" />
        </mxCell>
        <mxCell id="XZZybHyFyw4RxyHggj3s-27" value="" style="endArrow=none;dashed=1;html=1;dashPattern=1 3;strokeWidth=2;rounded=0;fontColor=#FF8000;strokeColor=#FF8000;" parent="WIyWlLk6GJQsqaUBKTNV-1" target="XZZybHyFyw4RxyHggj3s-24" edge="1">
          <mxGeometry width="50" height="50" relative="1" as="geometry">
            <mxPoint x="-1110" y="-2560" as="sourcePoint" />
            <mxPoint x="-1010.0000000000001" y="-2368.6800000000003" as="targetPoint" />
          </mxGeometry>
        </mxCell>
        <mxCell id="XZZybHyFyw4RxyHggj3s-30" value="SELECT (sql)" style="html=1;verticalAlign=bottom;endArrow=block;rounded=0;endSize=10;" parent="WIyWlLk6GJQsqaUBKTNV-1" edge="1">
          <mxGeometry x="0.5385" y="-10" width="80" relative="1" as="geometry">
            <mxPoint x="-1170" y="-3180" as="sourcePoint" />
            <mxPoint x="-1170" y="-3150" as="targetPoint" />
            <Array as="points">
              <mxPoint x="-1055" y="-3180" />
              <mxPoint x="-1055" y="-3150" />
            </Array>
            <mxPoint as="offset" />
          </mxGeometry>
        </mxCell>
        <mxCell id="XZZybHyFyw4RxyHggj3s-31" value="" style="endArrow=none;dashed=1;html=1;dashPattern=1 3;strokeWidth=2;rounded=0;fontColor=#FF8000;strokeColor=#FF8000;" parent="WIyWlLk6GJQsqaUBKTNV-1" target="XZZybHyFyw4RxyHggj3s-20" edge="1">
          <mxGeometry width="50" height="50" relative="1" as="geometry">
            <mxPoint x="-1100" y="-3180" as="sourcePoint" />
            <mxPoint x="-950" y="-3240" as="targetPoint" />
          </mxGeometry>
        </mxCell>
        <mxCell id="XZZybHyFyw4RxyHggj3s-33" value="User clicks&lt;br&gt;edit button&amp;nbsp;&lt;br&gt;on TaskList" style="text;html=1;align=center;verticalAlign=middle;resizable=0;points=[];autosize=1;strokeColor=#FF8000;fillColor=none;fontStyle=2;fontColor=#FF8000;spacingTop=1;spacingLeft=8;spacingRight=3;rounded=1;arcSize=50;" parent="WIyWlLk6GJQsqaUBKTNV-1" vertex="1">
          <mxGeometry x="-1550" y="-3370" width="90" height="60" as="geometry" />
        </mxCell>
        <mxCell id="XZZybHyFyw4RxyHggj3s-34" value="User edits&lt;br&gt;data&amp;nbsp;and&lt;br&gt;&amp;nbsp;sends form" style="text;html=1;align=center;verticalAlign=middle;resizable=0;points=[];autosize=1;strokeColor=#FF8000;fillColor=none;fontStyle=2;fontColor=#FF8000;spacingTop=1;spacingLeft=8;spacingRight=3;rounded=1;arcSize=50;" parent="WIyWlLk6GJQsqaUBKTNV-1" vertex="1">
          <mxGeometry x="-1570" y="-2930" width="90" height="60" as="geometry" />
        </mxCell>
        <mxCell id="XZZybHyFyw4RxyHggj3s-35" value="" style="endArrow=none;dashed=1;html=1;dashPattern=1 3;strokeWidth=2;rounded=0;fontColor=#FF8000;strokeColor=#FF8000;" parent="WIyWlLk6GJQsqaUBKTNV-1" target="XZZybHyFyw4RxyHggj3s-34" edge="1">
          <mxGeometry width="50" height="50" relative="1" as="geometry">
            <mxPoint x="-1560" y="-2840" as="sourcePoint" />
            <mxPoint x="-1290" y="-2810" as="targetPoint" />
          </mxGeometry>
        </mxCell>
        <mxCell id="XZZybHyFyw4RxyHggj3s-36" value="" style="endArrow=none;dashed=1;html=1;dashPattern=1 3;strokeWidth=2;rounded=0;fontColor=#FF8000;strokeColor=#FF8000;" parent="WIyWlLk6GJQsqaUBKTNV-1" target="XZZybHyFyw4RxyHggj3s-33" edge="1">
          <mxGeometry width="50" height="50" relative="1" as="geometry">
            <mxPoint x="-1540" y="-3290" as="sourcePoint" />
            <mxPoint x="-1290" y="-2810" as="targetPoint" />
          </mxGeometry>
        </mxCell>
        <mxCell id="XZZybHyFyw4RxyHggj3s-37" value="Controller&lt;br&gt;sends Redirect:&lt;br&gt;browser&amp;nbsp;wil&lt;br&gt;get TaskList" style="text;html=1;align=center;verticalAlign=middle;resizable=0;points=[];autosize=1;strokeColor=#FF8000;fillColor=none;fontStyle=2;fontColor=#FF8000;spacingTop=1;spacingLeft=8;spacingRight=3;rounded=1;arcSize=50;" parent="WIyWlLk6GJQsqaUBKTNV-1" vertex="1">
          <mxGeometry x="-1565" y="-2655" width="110" height="70" as="geometry" />
        </mxCell>
        <mxCell id="XZZybHyFyw4RxyHggj3s-38" value="" style="endArrow=none;dashed=1;html=1;dashPattern=1 3;strokeWidth=2;rounded=0;fontColor=#FF8000;strokeColor=#FF8000;" parent="WIyWlLk6GJQsqaUBKTNV-1" target="XZZybHyFyw4RxyHggj3s-37" edge="1">
          <mxGeometry width="50" height="50" relative="1" as="geometry">
            <mxPoint x="-1560" y="-2550" as="sourcePoint" />
            <mxPoint x="-1521.4285714285716" y="-2860" as="targetPoint" />
          </mxGeometry>
        </mxCell>
        <mxCell id="XZZybHyFyw4RxyHggj3s-39" value="TaskEdit&amp;nbsp;&lt;br&gt;sends form &lt;br&gt;to browser" style="text;html=1;align=center;verticalAlign=middle;resizable=0;points=[];autosize=1;strokeColor=#FF8000;fillColor=none;fontStyle=2;fontColor=#FF8000;spacingTop=1;spacingLeft=8;spacingRight=3;rounded=1;arcSize=50;" parent="WIyWlLk6GJQsqaUBKTNV-1" vertex="1">
          <mxGeometry x="-1550" y="-3100" width="90" height="60" as="geometry" />
        </mxCell>
        <mxCell id="XZZybHyFyw4RxyHggj3s-40" value="" style="endArrow=none;dashed=1;html=1;dashPattern=1 3;strokeWidth=2;rounded=0;fontColor=#FF8000;strokeColor=#FF8000;" parent="WIyWlLk6GJQsqaUBKTNV-1" source="XZZybHyFyw4RxyHggj3s-39" edge="1">
          <mxGeometry width="50" height="50" relative="1" as="geometry">
            <mxPoint x="-1530.0000000000002" y="-2820" as="sourcePoint" />
            <mxPoint x="-1530" y="-2990" as="targetPoint" />
          </mxGeometry>
        </mxCell>
        <mxCell id="XZZybHyFyw4RxyHggj3s-41" value="short for:&amp;nbsp;call all&lt;br&gt;necessary get methods" style="text;html=1;align=left;verticalAlign=middle;resizable=0;points=[];autosize=1;strokeColor=#FF8000;fillColor=none;fontStyle=2;fontColor=#FF8000;spacingTop=1;spacingLeft=6;spacingRight=3;rounded=1;arcSize=41;" parent="WIyWlLk6GJQsqaUBKTNV-1" vertex="1">
          <mxGeometry x="-1055" y="-2970" width="150" height="40" as="geometry" />
        </mxCell>
        <mxCell id="XZZybHyFyw4RxyHggj3s-42" value="" style="endArrow=none;dashed=1;html=1;dashPattern=1 3;strokeWidth=2;rounded=0;fontColor=#FF8000;strokeColor=#FF8000;" parent="WIyWlLk6GJQsqaUBKTNV-1" target="XZZybHyFyw4RxyHggj3s-41" edge="1">
          <mxGeometry width="50" height="50" relative="1" as="geometry">
            <mxPoint x="-1150" y="-3040" as="sourcePoint" />
            <mxPoint x="-1196.451612903226" y="-2960" as="targetPoint" />
          </mxGeometry>
        </mxCell>
      </root>
    </mxGraphModel>
  </diagram>
</mxfile>
